<?xml version="1.0" standalone="no"?><!DOCTYPE svg PUBLIC "-//W3C//DTD SVG 1.1//EN" "http://www.w3.org/Graphics/SVG/1.1/DTD/svg11.dtd"><svg t="1681871159904" class="icon" viewBox="0 0 1024 1024" version="1.1" xmlns="http://www.w3.org/2000/svg" p-id="4777" xmlns:xlink="http://www.w3.org/1999/xlink" width="200" height="200"><path d="M302.545455 617.192727l-17.687273-5.585454c-74.472727-23.738182-115.432727-102.865455-92.16-177.338182l66.094545-208.523636L545.978182 316.509091l-67.490909 213.178182C454.749091 603.694545 377.018182 640.465455 302.545455 617.192727zM271.364655 607.441455l44.376436 14.038109-62.184727 196.589381-44.381091-14.038109z" fill="#BBEBA1" p-id="4778"></path><path d="M343.505455 889.483636c-2.327273 0-4.654545-0.465455-6.981819-0.930909l-232.261818-73.541818c-12.101818-3.723636-19.083636-16.756364-15.36-29.323636 3.723636-12.101818 16.756364-19.083636 29.323637-15.36l232.261818 73.541818c12.101818 3.723636 19.083636 16.756364 15.36 29.323636-3.258182 9.774545-12.567273 16.290909-22.341818 16.290909zM764.741818 659.083636l-16.756363 7.447273c-71.214545 32.116364-154.530909 0.465455-186.647273-70.283636L498.036364 455.68l-26.530909-59.112727 60.043636-26.996364 214.109091-96.814545 92.16 203.403636c31.650909 71.214545-1.861818 150.807273-73.076364 182.923636z" fill="#BBEBA1" p-id="4779"></path><path d="M777.271855 653.051345l84.973381 187.885382-42.412218 19.176728-84.973382-187.880728z" fill="#BBEBA1" p-id="4780"></path><path d="M739.607273 940.683636c-8.843636 0-17.221818-5.12-21.410909-13.498181-5.12-11.636364 0-25.6 11.636363-30.72l222.021818-100.538182c11.636364-5.12 25.6 0 30.72 11.636363 5.12 11.636364 0 25.6-11.636363 30.72l-222.021818 100.538182c-3.258182 0.930909-6.516364 1.861818-9.309091 1.861818zM593.454545 244.363636c-5.12 0-10.705455-1.861818-14.894545-5.585454-9.774545-8.378182-11.170909-22.807273-2.792727-32.581818l39.563636-46.545455c8.378182-9.774545 22.807273-11.170909 32.581818-2.792727 9.774545 8.378182 11.170909 22.807273 2.792728 32.581818l-39.563637 46.545455c-4.654545 5.585455-11.170909 8.378182-17.687273 8.378181zM512 232.727273c-13.032727 0-23.272727-10.24-23.272727-23.272728V146.618182c0-13.032727 10.24-23.272727 23.272727-23.272727s23.272727 10.24 23.272727 23.272727V209.454545c0 13.032727-10.24 23.272727-23.272727 23.272728zM416.581818 251.345455c-6.516364 0-13.032727-2.792727-17.687273-8.378182l-39.563636-46.545455c-8.378182-9.774545-6.981818-24.669091 2.792727-32.581818 9.774545-8.378182 24.669091-6.981818 32.581819 2.792727l39.563636 46.545455c8.378182 9.774545 6.981818 24.669091-2.792727 32.581818-4.189091 3.723636-9.774545 5.585455-14.894546 5.585455z" fill="#BBEBA1" p-id="4781"></path><path d="M306.269091 610.210909c-17.221818 0-34.909091-2.792727-52.130909-8.378182l-17.687273-5.585454c-86.574545-27.461818-134.516364-120.087273-107.054545-206.196364l73.076363-230.865454 331.403637 104.727272-74.472728 235.054546c-22.341818 68.887273-84.247273 111.243636-153.134545 111.243636zM232.261818 217.832727l-59.112727 186.181818c-19.549091 61.905455 14.894545 128.465455 76.8 148.014546l17.687273 5.585454c62.836364 20.014545 127.534545-12.101818 146.618181-72.610909l60.509091-190.836363-242.501818-76.334546z" fill="#353E43" p-id="4782"></path><path d="M229.4784 570.205091l44.376436 14.038109-62.189381 196.589382-44.376437-14.038109z" fill="#353E43" p-id="4783"></path><path d="M301.614545 852.247273c-2.327273 0-4.654545-0.465455-6.981818-0.930909l-232.261818-73.541819c-12.101818-3.723636-19.083636-16.756364-15.36-29.323636s16.756364-19.083636 29.323636-15.36l232.261819 73.541818c12.101818 3.723636 19.083636 16.756364 15.36 29.323637-3.258182 9.774545-12.567273 16.290909-22.341819 16.290909zM647.912727 665.134545c-62.836364 0-122.414545-35.84-149.876363-96.814545L434.269091 428.218182l42.356364-19.083637 63.301818 140.567273c26.996364 59.112727 96.814545 85.643636 155.927272 58.647273l16.756364-7.447273c29.323636-13.032727 51.665455-35.84 62.836364-64.232727s10.705455-59.112727-2.327273-87.505455l-82.385455-182.458181L498.501818 353.745455l-19.083636-42.356364L714.938182 204.8l101.469091 224.814545c18.152727 40.029091 19.083636 84.247273 2.792727 124.276364-15.825455 39.563636-46.545455 71.214545-87.04 89.367273l-16.756364 7.447273c-21.876364 9.774545-44.683636 14.429091-67.490909 14.42909z" fill="#353E43" p-id="4784"></path><path d="M735.380945 615.810327l84.973382 187.885382-42.412218 19.181382-84.973382-187.885382z" fill="#353E43" p-id="4785"></path><path d="M697.716364 903.447273c-8.843636 0-17.221818-5.12-21.410909-13.498182-5.12-11.636364 0-25.6 11.636363-30.72l222.021818-100.538182c11.636364-5.12 25.6 0 30.72 11.636364 5.12 11.636364 0 25.6-11.636363 30.72l-222.021818 100.538182c-3.258182 0.930909-6.516364 1.861818-9.309091 1.861818zM551.563636 207.127273c-5.12 0-10.705455-1.861818-14.894545-5.585455-9.774545-8.378182-11.170909-22.807273-2.792727-32.581818l39.563636-46.545455c8.378182-9.774545 22.807273-11.170909 32.581818-2.792727 9.774545 8.378182 11.170909 22.807273 2.792727 32.581818l-39.563636 46.545455c-4.654545 5.585455-11.170909 8.378182-17.687273 8.378182zM470.109091 195.490909c-13.032727 0-23.272727-10.24-23.272727-23.272727V109.381818c0-13.032727 10.24-23.272727 23.272727-23.272727s23.272727 10.24 23.272727 23.272727V172.218182c0 13.032727-10.24 23.272727-23.272727 23.272727zM374.690909 214.109091c-6.516364 0-13.032727-2.792727-17.687273-8.378182l-39.563636-46.545454c-8.378182-9.774545-6.981818-24.669091 2.792727-32.581819s24.669091-6.981818 32.581818 2.792728l39.563637 46.545454c8.378182 9.774545 6.981818 24.669091-2.792727 32.581818-4.189091 3.723636-9.774545 5.585455-14.894546 5.585455zM427.287273 496.64c-1.861818 0-4.189091-0.465455-6.050909-0.930909-25.134545-6.516364-36.770909-20.014545-44.683637-29.789091-6.516364-7.912727-10.24-12.101818-21.410909-14.894545-11.170909-2.792727-16.290909-0.930909-26.065454 2.327272-12.101818 4.189091-28.392727 10.24-53.527273 3.723637-25.134545-6.516364-36.770909-20.014545-44.683636-29.789091-6.516364-7.912727-10.24-12.101818-21.41091-14.894546-12.567273-3.258182-20.014545-15.825455-16.290909-28.392727 3.258182-12.567273 16.290909-20.014545 28.392728-16.290909 25.134545 6.516364 36.770909 20.014545 44.683636 29.789091 6.516364 7.912727 10.24 12.101818 21.410909 14.894545 11.170909 2.792727 16.290909 0.930909 26.065455-2.327272 12.101818-4.189091 28.392727-10.24 53.527272-3.723637 25.134545 6.516364 36.770909 20.014545 44.683637 29.789091 6.516364 7.912727 10.24 12.101818 21.410909 14.894546 12.567273 3.258182 20.014545 15.825455 16.290909 28.392727-2.792727 10.24-12.101818 17.221818-22.341818 17.221818zM507.345455 528.290909c-8.843636 0-16.756364-4.654545-20.945455-13.032727-5.585455-11.636364-0.930909-25.6 10.705455-31.185455 20.48-9.774545 35.374545-8.378182 46.08-6.981818 7.912727 0.930909 12.101818 1.396364 20.014545-2.327273 8.378182-4.189091 10.24-7.447273 14.429091-14.429091 5.585455-9.309091 13.498182-22.341818 33.978182-32.116363s35.374545-8.378182 46.08-6.981818c7.912727 0.930909 12.101818 1.396364 20.014545-2.327273 11.636364-5.585455 25.6-0.930909 31.185455 10.705454 5.585455 11.636364 0.930909 25.6-10.705455 31.185455-20.48 9.774545-35.374545 8.378182-46.08 6.981818-7.912727-0.930909-12.101818-1.396364-20.014545 2.327273-8.378182 4.189091-10.24 7.447273-14.429091 14.429091-5.585455 9.309091-13.498182 22.341818-33.978182 32.116363-20.48 9.774545-35.374545 8.378182-46.08 6.981819-7.912727-0.930909-12.101818-1.396364-20.014545 2.327272-3.258182 1.396364-6.516364 2.327273-10.24 2.327273z" fill="#353E43" p-id="4786"></path></svg>